<?xml version="1.0" encoding="UTF-8" standalone="no"?>
<svg width="22px" height="22px" viewBox="0 0 22 22" version="1.1" xmlns="http://www.w3.org/2000/svg" xmlns:xlink="http://www.w3.org/1999/xlink">
    <!-- Generator: Sketch 3.6.1 (26313) - http://www.bohemiancoding.com/sketch -->
    <title>Slice 1</title>
    <desc>Created with Sketch.</desc>
    <defs></defs>
    <g id="Page-1" stroke="none" stroke-width="1" fill="none" fill-rule="evenodd">
        <g id="1455091150_ic_open_in_new_48px">
            <g id="Group">
                <path d="M0,0 L22,0 L22,22 L0,22 L0,0 Z" id="Shape"></path>
                <path d="M17.4166667,17.4166667 L4.58333333,17.4166667 L4.58333333,4.58333333 L11,4.58333333 L11,2.75 L4.58333333,2.75 C3.57041667,2.75 2.75,3.57041667 2.75,4.58333333 L2.75,17.4166667 C2.75,18.4295833 3.57041667,19.25 4.58333333,19.25 L17.4166667,19.25 C18.4295833,19.25 19.25,18.4295833 19.25,17.4166667 L19.25,11 L17.4166667,11 L17.4166667,17.4166667 L17.4166667,17.4166667 Z M12.8333333,2.75 L12.8333333,4.58333333 L16.1195833,4.58333333 L7.10875,13.5941667 L8.40583333,14.89125 L17.4166667,5.88041667 L17.4166667,9.16666667 L19.25,9.16666667 L19.25,2.75 L12.8333333,2.75 L12.8333333,2.75 Z" id="Shape" fill="#2B2C39"></path>
            </g>
        </g>
    </g>
</svg>