<?xml version="1.0" encoding="UTF-8" standalone="no"?>
<svg width="18px" height="15px" viewBox="0 0 18 15" version="1.1" xmlns="http://www.w3.org/2000/svg" xmlns:xlink="http://www.w3.org/1999/xlink">
    <!-- Generator: Sketch 3.6.1 (26313) - http://www.bohemiancoding.com/sketch -->
    <title>Slice 1</title>
    <desc>Created with Sketch.</desc>
    <defs></defs>
    <g id="Page-1" stroke="none" stroke-width="1" fill="none" fill-rule="evenodd">
        <g id="1455091291_ic_system_update_tv_48px" fill="#2B2C39">
            <path d="M9,10.7432432 L12.2727273,7.5 L9.81818182,7.5 L9.81818182,0.202702703 L8.18181818,0.202702703 L8.18181818,7.5 L5.72727273,7.5 L9,10.7432432 L9,10.7432432 Z M16.3636364,0.202702703 L11.4545455,0.202702703 L11.4545455,1.81216216 L16.3636364,1.81216216 L16.3636364,13.1878378 L1.63636364,13.1878378 L1.63636364,1.81216216 L6.54545455,1.81216216 L6.54545455,0.202702703 L1.63636364,0.202702703 C0.732272727,0.202702703 0,0.928378378 0,1.82432432 L0,13.1756757 C0,14.0716216 0.732272727,14.7972973 1.63636364,14.7972973 L16.3636364,14.7972973 C17.2677273,14.7972973 18,14.0716216 18,13.1756757 L18,1.82432432 C18,0.928378378 17.2677273,0.202702703 16.3636364,0.202702703 L16.3636364,0.202702703 Z" id="Shape"></path>
        </g>
    </g>
</svg>