<svg width="44" height="51" viewBox="0 0 44 51" xmlns="http://www.w3.org/2000/svg"><title>Slice 1</title><g fill="#303A3F" fill-rule="evenodd"><path d="M26.803 12.035c.01-.136.04-.273.04-.41 0-2.384-1.956-4.322-4.362-4.322-2.404 0-4.36 1.938-4.36 4.323 0 .146.03.273.04.41h8.644z"/><path d="M41.604.02H35.23c-.776 0-1.484.457-1.798 1.168L28.1 13.34H1.806c-1.57 0-2.357 1.88-1.247 2.99l16.784 16.64v14.04h-6.757c-.835 0-1.523.682-1.523 1.51s.688 1.51 1.523 1.51h16.5c.834 0 1.522-.682 1.522-1.51s-.69-1.51-1.524-1.51H20.33V32.96l16.795-16.64c1.11-1.1.324-2.99-1.247-2.99H32.37l4.146-9.425h5.088c1.08 0 1.964-.867 1.964-1.948 0-1.06-.874-1.938-1.964-1.938z"/></g></svg>